<svg width="456" height="226" viewBox="0 0 456 226" fill="none" xmlns="http://www.w3.org/2000/svg">
<g clip-path="url(#clip0)">
<path d="M229.463 226C353.111 226 453.348 219.952 453.348 212.491C453.348 205.03 353.111 198.982 229.463 198.982C105.815 198.982 5.57843 205.03 5.57843 212.491C5.57843 219.952 105.815 226 229.463 226Z" fill="#F2F2F2"/>
<path d="M220.882 64.6049C184.405 64.6049 158.215 85.9347 158.215 135.704C158.215 192.109 184.405 207.04 220.882 207.04C257.359 207.04 285.109 190.687 285.109 135.704C285.109 76.9288 257.359 64.6049 220.882 64.6049ZM221.122 188.317C195.857 188.317 182.658 174.808 182.658 135.741C182.658 101.269 196.398 83.0907 221.662 83.0907C246.927 83.0907 260.667 95.0314 260.667 135.741C260.667 173.823 246.387 188.317 221.122 188.317Z" fill="#0B3C5D"/>
<path d="M136.373 167.699H121.291V127.221C121.291 125.071 120.354 123.009 118.686 121.489C117.018 119.968 114.756 119.114 112.397 119.114H108.863C107.695 119.114 106.539 119.324 105.459 119.731C104.38 120.139 103.4 120.736 102.574 121.489C101.748 122.241 101.093 123.135 100.646 124.119C100.199 125.102 99.9689 126.156 99.9689 127.221V167.699H57.4286C56.5535 167.699 55.6932 167.493 54.9312 167.1C54.1692 166.708 53.5315 166.143 53.0797 165.46C52.628 164.776 52.3777 163.998 52.3531 163.201C52.3285 162.404 52.5304 161.614 52.9392 160.909L97.9633 83.2405C98.5247 82.2721 98.8649 81.2102 98.9635 80.1187C99.0621 79.0272 98.917 77.9288 98.537 76.8899C98.157 75.8509 97.5499 74.8929 96.7525 74.0737C95.955 73.2544 94.9837 72.591 93.8972 72.1233L91.2393 70.9794C89.1755 70.0911 86.816 69.96 84.649 70.613C82.4821 71.2661 80.6735 72.6534 79.5976 74.488L24.6847 168.114C23.7496 169.709 23.2604 171.488 23.2604 173.296C23.2604 174.74 23.5723 176.169 24.1784 177.503C24.7845 178.836 25.6729 180.048 26.7928 181.069C27.9127 182.09 29.2422 182.899 30.7055 183.452C32.1687 184.004 33.737 184.288 35.3208 184.288H99.9689V209.884C99.9689 211.16 100.245 212.424 100.78 213.603C101.316 214.782 102.101 215.853 103.091 216.755C104.081 217.657 105.257 218.373 106.55 218.861C107.844 219.35 109.23 219.601 110.63 219.601H110.63C112.03 219.601 113.416 219.35 114.71 218.861C116.003 218.373 117.179 217.657 118.169 216.755C119.159 215.853 119.944 214.782 120.48 213.603C121.015 212.424 121.291 211.16 121.291 209.884V184.289H136.373C138.787 184.289 141.101 183.415 142.808 181.859C144.515 180.303 145.474 178.194 145.474 175.994C145.474 173.794 144.515 171.684 142.808 170.128C141.102 168.573 138.787 167.699 136.373 167.699Z" fill="#328CC1"/>
<path d="M415.644 167.699H400.562V127.221C400.562 125.071 399.625 123.009 397.957 121.489C396.289 119.968 394.027 119.114 391.668 119.114H388.134C386.966 119.114 385.809 119.324 384.73 119.731C383.651 120.139 382.671 120.736 381.845 121.489C381.019 122.241 380.364 123.135 379.917 124.119C379.47 125.102 379.24 126.156 379.24 127.221V167.699H336.7C335.824 167.699 334.964 167.493 334.202 167.1C333.44 166.708 332.802 166.143 332.351 165.46C331.899 164.776 331.649 163.998 331.624 163.201C331.599 162.404 331.801 161.614 332.21 160.909L377.234 83.2405C377.796 82.2722 378.136 81.2102 378.234 80.1187C378.333 79.0272 378.188 77.9288 377.808 76.8899C377.428 75.8509 376.821 74.8929 376.023 74.0737C375.226 73.2544 374.255 72.591 373.168 72.1233L370.51 70.9794C368.446 70.0911 366.087 69.96 363.92 70.613C361.753 71.2661 359.944 72.6534 358.868 74.488L303.956 168.114C303.021 169.709 302.531 171.488 302.531 173.296C302.531 176.212 303.802 179.008 306.064 181.069C308.325 183.13 311.393 184.288 314.592 184.288H379.24V209.884C379.24 212.461 380.363 214.933 382.362 216.755C384.362 218.577 387.073 219.601 389.901 219.601C392.728 219.601 395.44 218.577 397.44 216.755C399.439 214.933 400.562 212.461 400.562 209.884V184.289H415.644C418.057 184.289 420.372 183.415 422.079 181.859C423.786 180.303 424.745 178.194 424.745 175.994C424.745 173.794 423.786 171.684 422.079 170.128C420.372 168.573 418.058 167.699 415.644 167.699Z" fill="#328CC1"/>
<path d="M140.533 162.959H125.452V122.481C125.452 121.416 125.222 120.362 124.775 119.379C124.328 118.395 123.673 117.501 122.847 116.749C122.021 115.996 121.04 115.399 119.961 114.991C118.882 114.584 117.725 114.374 116.557 114.374H113.024C110.665 114.374 108.402 115.228 106.734 116.749C105.066 118.269 104.129 120.331 104.129 122.481V162.959H61.5891C60.7139 162.959 59.8536 162.753 59.0917 162.36C58.3297 161.968 57.6919 161.403 57.2402 160.72C56.7885 160.036 56.5382 159.258 56.5135 158.461C56.4889 157.664 56.6908 156.874 57.0996 156.169L102.124 78.5006C102.685 77.5322 103.025 76.4703 103.124 75.3788C103.223 74.2873 103.077 73.1889 102.697 72.1499C102.317 71.111 101.71 70.153 100.913 69.3337C100.115 68.5145 99.1442 67.851 98.0576 67.3834L95.3997 66.2394C93.3359 65.3512 90.9765 65.22 88.8095 65.8731C86.6426 66.5262 84.834 67.9135 83.758 69.748L28.8452 163.374C27.9101 164.969 27.4208 166.749 27.4208 168.556V168.556C27.4208 171.472 28.6915 174.268 30.9533 176.329C33.215 178.39 36.2826 179.549 39.4813 179.549H104.129V205.144C104.129 206.42 104.405 207.684 104.941 208.863C105.477 210.042 106.262 211.113 107.252 212.015C108.242 212.917 109.417 213.633 110.711 214.121C112.004 214.61 113.39 214.861 114.79 214.861H114.791C117.618 214.861 120.33 213.837 122.329 212.015C124.328 210.193 125.452 207.721 125.452 205.144V179.549H140.533C141.728 179.549 142.912 179.334 144.016 178.917C145.12 178.5 146.124 177.889 146.969 177.119C147.814 176.349 148.484 175.434 148.942 174.428C149.399 173.422 149.634 172.343 149.634 171.254V171.254C149.634 170.164 149.399 169.086 148.942 168.079C148.484 167.073 147.814 166.159 146.969 165.388C146.124 164.618 145.12 164.007 144.016 163.59C142.912 163.173 141.729 162.959 140.533 162.959V162.959Z" stroke="#0B3C5D" stroke-miterlimit="10"/>
<path d="M423.445 162.959H408.363V122.481C408.363 120.331 407.426 118.269 405.758 116.749C404.09 115.228 401.828 114.374 399.469 114.374H395.935C394.767 114.374 393.61 114.584 392.531 114.991C391.452 115.399 390.472 115.996 389.646 116.749C388.82 117.501 388.165 118.395 387.718 119.379C387.271 120.362 387.041 121.416 387.041 122.481V162.959H344.5C343.625 162.959 342.765 162.753 342.003 162.36C341.241 161.968 340.603 161.403 340.151 160.72C339.7 160.036 339.449 159.258 339.425 158.461C339.4 157.664 339.602 156.874 340.011 156.169L385.035 78.5006C385.596 77.5322 385.937 76.4703 386.035 75.3788C386.134 74.2873 385.989 73.1889 385.609 72.1499C385.229 71.111 384.622 70.153 383.824 69.3337C383.027 68.5145 382.055 67.851 380.969 67.3834L378.311 66.2394C376.247 65.3512 373.888 65.22 371.721 65.8731C369.554 66.5262 367.745 67.9135 366.669 69.748L311.756 163.374C310.821 164.969 310.332 166.749 310.332 168.556C310.332 171.472 311.603 174.268 313.865 176.329C316.126 178.39 319.194 179.549 322.393 179.549H387.041V205.144C387.041 207.721 388.164 210.193 390.163 212.015C392.163 213.837 394.874 214.861 397.702 214.861V214.861C400.529 214.861 403.241 213.837 405.24 212.015C407.24 210.193 408.363 207.721 408.363 205.144V179.549H423.445C424.64 179.549 425.823 179.334 426.927 178.917C428.032 178.5 429.035 177.889 429.88 177.119C430.725 176.349 431.396 175.434 431.853 174.428C432.31 173.422 432.546 172.343 432.546 171.254V171.254C432.546 169.054 431.587 166.944 429.88 165.388C428.173 163.833 425.858 162.959 423.445 162.959V162.959Z" stroke="#0B3C5D" stroke-miterlimit="10"/>
<path d="M229.203 60.339C192.726 60.339 166.536 81.6687 166.536 131.438C166.536 187.843 192.726 202.774 229.203 202.774C265.68 202.774 293.43 186.421 293.43 131.438C293.43 72.6628 265.68 60.339 229.203 60.339ZM229.443 184.051C204.178 184.051 190.979 170.542 190.979 131.475C190.979 97.0031 204.719 78.8248 229.983 78.8248C255.248 78.8248 268.988 90.7654 268.988 131.475C268.988 169.557 254.708 184.051 229.443 184.051V184.051Z" stroke="#0B3C5D" stroke-miterlimit="10"/>
<path d="M199.965 12.0505C202.989 12.0505 205.44 9.81612 205.44 7.05988C205.44 4.30365 202.989 2.06927 199.965 2.06927C196.94 2.06927 194.489 4.30365 194.489 7.05988C194.489 9.81612 196.94 12.0505 199.965 12.0505Z" fill="#2F2E41"/>
<path d="M213.32 36.2732C221.802 36.2732 228.678 28.1531 228.678 18.1366C228.678 8.12003 221.802 0 213.32 0C204.837 0 197.961 8.12003 197.961 18.1366C197.961 28.1531 204.837 36.2732 213.32 36.2732Z" fill="#2F2E41"/>
<path opacity="0.1" d="M213.32 30.7957C205.626 30.7957 199.254 24.1149 198.136 15.3978C198.019 16.3069 197.961 17.2214 197.961 18.1366C197.961 28.1531 204.838 36.2732 213.32 36.2732C221.802 36.2732 228.678 28.1531 228.678 18.1366C228.678 17.2214 228.62 16.3069 228.504 15.3978C227.386 24.1149 221.014 30.7957 213.32 30.7957Z" fill="black"/>
<path d="M244.572 71.2503C244.242 72.4857 242.82 73.475 241.245 74.1663C237.934 75.6195 233.849 76.0532 229.888 76.1988C228.877 76.2547 227.863 76.2377 226.855 76.1477C224.903 75.9755 223.071 75.208 221.656 73.9693C221.555 73.9093 221.472 73.8269 221.416 73.7299C221.359 73.6329 221.33 73.5244 221.332 73.4146C221.334 73.3047 221.366 73.197 221.426 73.1017C221.486 73.0063 221.572 72.9263 221.675 72.8692C223.784 70.7575 227.303 69.4627 230.849 68.5304C233.537 67.8235 238.226 65.9924 241.158 66.2395C243.999 66.4789 244.989 69.6906 244.572 71.2503Z" fill="#3F3D56"/>
<path opacity="0.1" d="M244.572 71.2503C244.242 72.4857 242.82 73.475 241.245 74.1663C237.934 75.6195 233.849 76.0532 229.888 76.1988C228.877 76.2547 227.863 76.2377 226.855 76.1477C224.903 75.9755 223.071 75.208 221.656 73.9693C221.555 73.9093 221.472 73.8269 221.416 73.7299C221.359 73.6329 221.33 73.5244 221.332 73.4146C221.334 73.3047 221.366 73.197 221.426 73.1017C221.486 73.0063 221.572 72.9263 221.675 72.8692C223.784 70.7575 227.303 69.4627 230.849 68.5304C233.537 67.8235 238.226 65.9924 241.158 66.2395C243.999 66.4789 244.989 69.6906 244.572 71.2503Z" fill="black"/>
<path d="M202.47 62.0176C201.459 63.8232 201.276 65.9206 201.961 67.8491C202.658 69.7629 203.962 71.4453 205.708 72.6833C209.993 75.8134 215.89 76.2441 221.38 76.2006C226.192 76.1625 230.998 75.8623 235.771 75.3017C237.37 75.1725 238.942 74.8399 240.44 74.3136C242.232 73.6069 243.807 72.3107 244.445 70.6287C245.083 68.9467 244.63 66.8871 243.115 65.7646C241.783 64.7783 239.947 64.6426 238.235 64.5488L228.436 64.0121C229.404 63.1191 230.693 62.6141 231.872 61.9649C233.436 61.1036 234.475 59.6576 235.612 58.3539C237.365 56.4452 239.271 54.6585 241.316 53.009C241.635 54.6764 242.792 56.0456 244.154 57.1961C245.516 58.3466 247.086 59.2728 248.502 60.3682C251.931 63.0213 254.4 66.6221 258.006 69.0721C260.487 68.478 262.806 67.4228 264.817 65.9727L263.416 63.6589C263.299 63.4208 263.117 63.214 262.888 63.0582C262.491 62.8358 261.979 62.9504 261.519 62.8875C260.288 62.7192 259.75 61.4237 259.267 60.378C257.941 57.507 255.401 55.2795 253.232 52.8719C251.632 51.0947 250.212 49.1884 248.99 47.1766C248.261 45.9768 247.594 44.7276 246.606 43.6939C245.617 42.6602 244.232 41.8475 242.727 41.8446C241.398 41.8421 240.172 42.4572 239.029 43.0759C235.547 44.9606 232.198 47.0405 228.999 49.3036C227.326 50.4879 225.662 51.7392 223.699 52.4655C222.872 52.7712 222.001 52.9802 221.207 53.3522C219.818 54.0038 218.764 55.1063 217.629 56.0849C213.581 59.5753 208.039 61.8368 202.47 62.0176Z" fill="#3F3D56"/>
<path d="M222.959 37.1739C222.914 38.2408 222.665 39.2924 222.224 40.2815C222 40.7748 221.667 41.2208 221.246 41.5917C220.825 41.9625 220.324 42.2504 219.776 42.4372C218.997 42.6274 218.18 42.6516 217.389 42.5078C216.699 42.4421 216.035 42.2358 215.444 41.904C214.526 41.3283 214.068 40.3009 213.901 39.2955C213.734 38.2913 213.808 37.2652 213.702 36.2537C213.598 35.4367 213.427 34.6278 213.191 33.8339C213.119 33.5697 213.046 33.3068 212.974 33.0439C212.903 32.781 212.834 32.518 212.769 32.2551C212.711 32.008 212.656 31.7597 212.609 31.5102C212.57 31.2996 212.536 31.0878 212.51 30.8748C212.487 30.2433 212.372 29.6174 212.167 29.0137C211.975 28.6221 211.735 28.2517 211.451 27.9096C211.33 27.7514 211.212 27.5932 211.104 27.4288C210.791 27.0018 210.646 26.4909 210.691 25.9791C210.704 25.9 210.725 25.8222 210.754 25.7466C210.765 25.7174 210.777 25.6882 210.79 25.6602C210.91 25.6305 211.021 25.5745 211.112 25.4971C211.203 25.4196 211.272 25.3231 211.312 25.2159C211.358 24.9856 211.337 24.7484 211.25 24.5282C211.15 24.2205 211.013 23.9238 210.842 23.6433C210.73 23.4583 210.35 23.1247 210.347 22.9129C210.342 22.4869 211.255 22.1436 211.625 21.9757C212.754 21.4603 214.013 21.2276 215.274 21.3013C216.082 21.3512 216.958 21.5776 217.404 22.1948C217.804 22.751 217.751 23.4716 217.922 24.118C217.94 24.2119 217.984 24.3002 218.049 24.3748C218.136 24.4472 218.246 24.4931 218.363 24.5063C218.56 24.5421 218.763 24.5495 218.964 24.5282H218.965C219.018 24.5244 219.071 24.5174 219.123 24.5075C219.434 24.455 219.729 24.3389 219.985 24.1679C220.151 24.1277 220.318 24.0948 220.486 24.0693C220.493 24.0687 220.5 24.0674 220.506 24.0656C221.175 25.9901 221.262 28.0532 221.81 30.013C222.081 30.988 222.469 31.9508 222.524 32.9538C222.528 32.9976 222.529 33.0426 222.531 33.0877C222.539 33.4102 222.511 33.7352 222.525 34.0566C222.531 34.2013 222.548 34.3454 222.579 34.4875C222.639 34.716 222.713 34.9412 222.802 35.1618L222.806 35.1728C222.831 35.2434 222.855 35.3152 222.875 35.387C222.89 35.4393 222.903 35.4905 222.914 35.5428L222.915 35.5465C223.014 36.0843 223.029 36.6323 222.959 37.1739Z" fill="#FBBEBE"/>
<path d="M213.587 24.5879C217.939 24.5879 221.466 21.3725 221.466 17.4063C221.466 13.44 217.939 10.2246 213.587 10.2246C209.235 10.2246 205.707 13.44 205.707 17.4063C205.707 21.3725 209.235 24.5879 213.587 24.5879Z" fill="#FBBEBE"/>
<path d="M263.612 56.535C263.384 54.5757 262.62 52.6999 261.39 51.0794C261.594 52.1871 261.799 53.2944 262.004 54.4012C261.749 54.4685 261.478 54.4665 261.224 54.3953C260.971 54.3242 260.745 54.1871 260.575 54.0008C260.244 53.6232 259.99 53.1939 259.826 52.7336C258.931 50.7082 257.76 48.7931 256.342 47.0334C251.326 46.6524 246.367 44.7572 241.956 42.5479C237.543 40.3399 233.414 37.6924 229.06 35.3907C228.305 34.9748 227.519 34.6087 226.707 34.2952C225.345 33.7973 223.815 33.5393 222.524 32.9538C222.437 32.9148 222.35 32.8735 222.265 32.8309C221.973 32.6862 221.697 32.5171 221.44 32.3257C221.301 32.2228 221.169 32.1122 221.044 31.9946C220.4 31.3114 219.889 30.5324 219.534 29.6916C218.841 28.2943 218.594 26.6084 217.902 25.2111C218.22 24.9402 218.577 24.7105 218.964 24.5282H218.965C219.021 24.5014 219.077 24.4759 219.135 24.4515C219.408 24.334 219.693 24.2391 219.985 24.1679C220.151 24.1277 220.318 24.0949 220.486 24.0693C220.493 24.0687 220.5 24.0675 220.506 24.0656C221.286 23.9498 222.086 24.0074 222.837 24.2336C223.934 24.572 224.86 25.2476 225.783 25.8866C227.282 26.8493 228.72 27.8888 230.09 29.0003C230.851 29.6648 231.545 30.3952 232.364 30.9989C233.044 31.4775 233.762 31.9107 234.51 32.2953C238.94 34.7005 243.37 37.1053 247.801 39.5097C249.301 40.3241 250.802 41.1384 252.269 42.0002C254.496 43.3099 256.644 44.7292 258.79 46.1472C260.055 46.9823 261.319 47.8177 262.583 48.6535C262.997 48.8946 263.361 49.2013 263.658 49.5591C263.92 49.9654 264.082 50.4184 264.135 50.8871C264.452 52.7809 264.273 54.7163 263.612 56.535Z" fill="#FBBEBE"/>
<path d="M224.913 42.5747C224.382 44.7474 221.972 46.0609 220.713 47.9694C219.148 50.3381 219.786 53.0915 220.374 55.8047C219.3 56.6482 218.226 57.4918 217.151 58.3353C216.558 58.799 215.965 59.2652 215.327 59.6754C214.396 60.2439 213.423 60.7531 212.416 61.1994C211.465 61.6449 210.514 62.0908 209.563 62.5371C208.679 62.9901 207.742 63.3519 206.77 63.6156C204.897 64.0538 202.907 63.747 201.053 63.2395C200.834 63.1872 200.624 63.109 200.428 63.007C200.312 62.9441 200.212 62.861 200.132 62.7623C199.949 62.4637 199.882 62.1174 199.943 61.78C200.132 58.9366 200.894 56.1528 201.654 53.3897C202.06 51.7321 202.606 50.1055 203.287 48.5245C203.955 47.1698 204.723 45.8579 205.586 44.5977C206.538 43.0122 207.665 41.5198 208.951 40.1439C209.577 39.6144 210.104 38.9952 210.511 38.3108C210.985 37.3248 210.802 36.194 210.898 35.1204C210.972 34.3138 211.207 33.5263 211.592 32.7968V32.7956C211.797 32.4026 212.045 32.0291 212.331 31.6806C212.461 31.9557 212.591 32.2304 212.72 32.5046C212.806 32.6848 212.89 32.8645 212.974 33.0439C213.083 33.2752 213.192 33.5056 213.3 33.7353C213.611 34.395 213.922 35.0543 214.232 35.7133C214.567 36.5432 215.045 37.3193 215.647 38.0126C215.923 38.3676 216.295 38.6514 216.726 38.8364C217.158 39.0214 217.635 39.1011 218.111 39.0679C218.586 39.0347 219.044 38.8896 219.44 38.6468C219.836 38.404 220.156 38.0718 220.369 37.6827C220.817 36.9564 221.143 36.172 221.333 35.3566C221.597 34.3637 221.633 33.332 221.44 32.3257C221.118 30.3879 220.214 28.4087 219.557 26.6085C219.289 26.0082 219.134 25.3712 219.098 24.7242C219.1 24.6515 219.108 24.579 219.122 24.5075C219.126 24.4893 219.131 24.4698 219.135 24.4515C219.408 24.334 219.693 24.2391 219.985 24.1679C220.151 24.1277 220.318 24.0949 220.486 24.0693C221.064 26.9225 221.644 29.7757 222.224 32.6288C222.237 32.6958 222.252 32.7627 222.265 32.8309C222.348 33.2399 222.432 33.6488 222.525 34.0566C222.61 34.4266 222.7 34.7955 222.802 35.1619L222.806 35.1728C222.841 35.297 222.877 35.4199 222.914 35.5428L222.915 35.5465C223.018 35.8824 223.133 36.216 223.263 36.5446C224.048 38.525 225.417 40.5188 224.913 42.5747Z" fill="#328CC1"/>
<path d="M256.891 73.1086C256.866 73.5272 256.955 73.9448 257.15 74.3245C257.643 75.146 258.827 75.3327 259.851 75.4095C265.832 75.8576 271.849 75.6905 277.789 74.9114C278.111 74.8913 278.424 74.8029 278.702 74.6531C279.547 74.1134 279.026 72.7982 278.104 72.3772C277.182 71.9561 276.087 72.0576 275.076 71.8753C274.07 71.6446 273.113 71.2662 272.241 70.7549C270.189 69.6804 268.167 68.5601 266.175 67.3941C264.989 66.6999 263.589 65.959 262.253 66.3706C258.635 67.4862 256.867 69.5511 256.891 73.1086Z" fill="#3F3D56"/>
<path d="M212.8 32.103V32.1042C212.791 32.1553 212.781 32.2052 212.769 32.2551C212.755 32.3379 212.737 32.4219 212.72 32.5046C212.554 33.2776 212.351 34.0469 212.118 34.8113C211.477 36.9231 210.618 39.0009 209.766 41.0483C207.48 46.538 205.193 52.028 202.905 57.5185C202.328 58.9013 201.753 60.2853 201.097 61.64C200.878 62.0916 200.652 62.5468 200.428 63.007C199.624 64.6539 198.852 66.3543 198.596 68.1071C198.357 69.2607 198.329 70.4424 198.514 71.6042C198.771 72.7533 199.536 73.8755 200.734 74.3003C201.319 74.5085 202.156 74.7872 201.996 75.3411C201.909 75.6454 201.53 75.7939 201.189 75.845C200.74 75.9103 200.28 75.8846 199.842 75.7698C199.404 75.6549 199 75.4537 198.657 75.1804C198.017 74.6631 197.526 73.8585 196.675 73.7721C196.086 73.7137 195.544 74.035 195.004 74.2602C192.804 75.1767 190.239 74.5353 187.928 73.8841C188.109 73.0308 189.049 72.4684 189.983 72.298C190.916 72.1264 191.882 72.2481 192.834 72.225C193.139 72.2398 193.442 72.1689 193.701 72.0217C193.933 71.8273 194.096 71.5737 194.168 71.2938C194.782 69.6373 195.238 67.9359 195.532 66.2083C195.839 64.4031 195.967 62.57 196.405 60.7868C196.746 59.3955 197.272 58.048 197.724 56.6823C198.596 53.8703 199.313 51.0201 199.871 48.1423C200.153 46.9467 200.355 45.7366 200.476 44.5186C200.552 43.5083 200.516 42.4932 200.623 41.4865C200.802 40.1769 201.102 38.8833 201.519 37.6194C201.928 36.2403 202.336 34.862 202.744 33.4845C203.349 31.4457 203.998 29.3277 205.531 27.7429C206.063 27.185 206.716 26.7326 207.448 26.414C208.18 26.0953 208.976 25.917 209.787 25.8903C210.091 25.8899 210.394 25.9197 210.691 25.9791C210.741 25.9901 210.79 26.001 210.84 26.0132C211.163 26.0903 211.474 26.2075 211.762 26.3613C212.235 26.0875 212.476 26.1836 212.789 26.606C213.065 27.053 213.194 27.5622 213.163 28.074C213.19 29.4246 213.068 30.7744 212.8 32.103Z" fill="#FBBEBE"/>
<path d="M213.32 33.717L213.3 33.7353L213.192 33.8339L212.118 34.8113L211.592 32.7968L209.787 25.8903C210.091 25.8899 210.394 25.9197 210.691 25.9791C210.704 25.9 210.725 25.8222 210.754 25.7466L210.84 26.0132L211.451 27.9096L212.609 31.5102L212.8 32.103V32.1042L213.32 33.717Z" fill="#6C63FF"/>
<path d="M220.133 11.6834C220.132 12.323 219.993 12.956 219.724 13.5465C219.454 14.137 219.06 14.6732 218.563 15.1246C218.383 15.2889 218.19 15.441 217.986 15.5797C217.064 16.2129 215.941 16.5556 214.787 16.5561H208.38C206.964 16.5541 205.607 16.0401 204.607 15.127C203.607 14.2138 203.045 12.9762 203.045 11.6858C203.045 10.3954 203.607 9.15779 204.607 8.24465C205.607 7.3315 206.964 6.81751 208.38 6.81551H214.787C216.203 6.81887 217.56 7.33267 218.562 8.24472C219.563 9.15678 220.128 10.393 220.133 11.6834Z" fill="#2F2E41"/>
<path d="M226.141 12.0505C229.165 12.0505 231.616 9.81612 231.616 7.05988C231.616 4.30365 229.165 2.06927 226.141 2.06927C223.117 2.06927 220.665 4.30365 220.665 7.05988C220.665 9.81612 223.117 12.0505 226.141 12.0505Z" fill="#2F2E41"/>
<path opacity="0.1" d="M226.007 2.06927C225.94 2.06927 225.873 2.0717 225.807 2.07388C227.223 2.12082 228.564 2.66667 229.548 3.5966C230.532 4.52652 231.082 5.76802 231.082 7.05988C231.082 8.35173 230.532 9.59322 229.548 10.5231C228.564 11.4531 227.223 11.9989 225.807 12.0459C225.873 12.048 225.94 12.0505 226.007 12.0505C227.459 12.0505 228.852 11.5247 229.879 10.5888C230.906 9.65284 231.483 8.38347 231.483 7.05988C231.483 5.73628 230.906 4.4669 229.879 3.53098C228.852 2.59506 227.459 2.06927 226.007 2.06927Z" fill="black"/>
<path opacity="0.1" d="M199.965 2.06927C200.032 2.06927 200.098 2.0717 200.165 2.07388C198.748 2.12082 197.407 2.66667 196.423 3.5966C195.439 4.52652 194.89 5.76802 194.89 7.05988C194.89 8.35173 195.439 9.59322 196.423 10.5231C197.407 11.4531 198.748 11.9989 200.165 12.0459C200.098 12.048 200.032 12.0505 199.965 12.0505C198.513 12.0493 197.122 11.523 196.096 10.5872C195.07 9.65141 194.494 8.3827 194.494 7.05988C194.494 5.73705 195.07 4.46833 196.096 3.53254C197.122 2.59674 198.513 2.07043 199.965 2.06927Z" fill="black"/>
<path opacity="0.1" d="M217.986 15.5797C217.064 16.2129 215.941 16.5556 214.787 16.5561H208.38C207.226 16.5556 206.103 16.2129 205.182 15.5797H217.986Z" fill="black"/>
<path d="M259.361 51.7412C259.361 51.7412 260.741 55.3665 262.004 54.4012L260.997 49.6626L259.361 51.7412Z" fill="#FBBEBE"/>
<path d="M427.339 162.296C428.625 162.722 430.002 162.87 431.361 162.728C432.72 162.586 434.025 162.159 435.172 161.479C436.319 160.8 437.277 159.887 437.97 158.812C438.664 157.738 439.075 156.531 439.169 155.287C439.264 154.043 439.041 152.796 438.517 151.644C437.992 150.493 437.182 149.468 436.149 148.65C435.116 147.833 433.889 147.245 432.564 146.934C431.24 146.622 429.854 146.595 428.516 146.855L428.737 150.999L426.586 147.448C424.475 148.352 422.844 149.983 422.051 151.982C421.77 152.683 421.599 153.416 421.543 154.16C421.407 155.906 421.9 157.645 422.946 159.113C423.992 160.581 425.534 161.699 427.339 162.296Z" fill="#57B894"/>
<path d="M437.983 210.357C437.223 206.833 440.514 203.709 443.764 201.678C447.014 199.647 450.811 197.652 451.92 194.206C453.514 189.253 448.767 184.717 445.072 180.805C442.331 177.902 439.977 174.713 438.059 171.305C437.29 169.939 436.584 168.511 436.381 166.986C436.09 164.791 436.864 162.606 437.644 160.512C440.241 153.535 443.018 146.617 445.975 139.758" stroke="#3F3D56" stroke-miterlimit="10"/>
<path d="M427.703 161.229C428.989 161.655 430.365 161.803 431.725 161.661C433.084 161.52 434.388 161.092 435.535 160.413C436.682 159.733 437.64 158.82 438.334 157.745C439.028 156.671 439.438 155.464 439.533 154.22C439.628 152.976 439.404 151.729 438.88 150.578C438.356 149.426 437.546 148.401 436.513 147.583C435.48 146.766 434.253 146.178 432.928 145.867C431.603 145.555 430.217 145.528 428.879 145.788L429.101 149.932L426.949 146.381C424.838 147.285 423.207 148.916 422.415 150.916C422.134 151.616 421.963 152.349 421.907 153.093C421.771 154.839 422.263 156.578 423.309 158.046C424.355 159.514 425.898 160.632 427.703 161.229V161.229Z" stroke="#3F3D56" stroke-miterlimit="10"/>
<path d="M436.903 138.327C437.408 137.058 438.255 135.925 439.366 135.033C440.477 134.141 441.816 133.518 443.261 133.222L443.988 137.161L445.337 133.024C447.209 133.049 449.024 133.616 450.519 134.643C452.015 135.669 453.114 137.103 453.658 138.736C454.201 140.369 454.161 142.117 453.544 143.728C452.926 145.339 451.763 146.73 450.222 147.699C448.68 148.668 446.841 149.166 444.969 149.12C443.098 149.074 441.29 148.488 439.808 147.445C438.326 146.402 437.246 144.957 436.724 143.318C436.202 141.679 436.264 139.931 436.903 138.327H436.903Z" fill="#57B894"/>
<path d="M437.388 136.905C437.893 135.636 438.74 134.503 439.851 133.611C440.962 132.719 442.301 132.096 443.746 131.799L444.473 135.739L445.822 131.601C447.694 131.627 449.509 132.193 451.005 133.22C452.5 134.247 453.599 135.68 454.143 137.313C454.686 138.946 454.646 140.695 454.029 142.306C453.411 143.917 452.248 145.307 450.707 146.276C449.165 147.245 447.326 147.743 445.454 147.697C443.583 147.652 441.775 147.065 440.293 146.022C438.811 144.979 437.731 143.534 437.209 141.895C436.687 140.256 436.749 138.509 437.388 136.905H437.388Z" stroke="#3F3D56" stroke-miterlimit="10"/>
<path d="M443.521 180.885C445.56 181.559 447.8 181.526 449.814 180.791C451.828 180.057 453.475 178.673 454.441 176.903C455.407 175.133 455.625 173.101 455.053 171.194C454.481 169.287 453.159 167.639 451.339 166.563L450.303 169.743L449.568 165.757C449.561 165.754 449.553 165.751 449.546 165.749C448.455 165.388 447.297 165.226 446.138 165.273C444.978 165.32 443.841 165.574 442.789 166.022C441.738 166.47 440.794 167.102 440.011 167.882C439.228 168.662 438.621 169.576 438.225 170.57C437.829 171.564 437.653 172.62 437.705 173.676C437.757 174.733 438.037 175.77 438.528 176.728C439.02 177.686 439.714 178.546 440.571 179.259C441.428 179.972 442.43 180.525 443.521 180.885H443.521Z" fill="#57B894"/>
<path d="M443.942 179.444C445.981 180.118 448.221 180.085 450.234 179.351C452.248 178.616 453.895 177.232 454.861 175.462C455.827 173.692 456.045 171.66 455.473 169.753C454.901 167.846 453.579 166.198 451.759 165.123L450.723 168.302L449.988 164.316C449.981 164.313 449.974 164.31 449.966 164.308C448.875 163.947 447.717 163.785 446.558 163.832C445.399 163.879 444.261 164.133 443.21 164.581C442.158 165.029 441.214 165.661 440.431 166.441C439.648 167.222 439.041 168.135 438.646 169.129C438.25 170.123 438.073 171.179 438.125 172.236C438.177 173.292 438.457 174.329 438.949 175.287C439.441 176.245 440.135 177.105 440.991 177.818C441.848 178.532 442.851 179.084 443.942 179.444H443.942Z" stroke="#3F3D56" stroke-miterlimit="10"/>
<path d="M434.325 194.255C434.676 196.073 435.702 197.726 437.231 198.937C438.76 200.147 440.699 200.842 442.724 200.904C444.748 200.966 446.734 200.392 448.349 199.278C449.964 198.164 451.11 196.577 451.594 194.785C452.078 192.992 451.871 191.103 451.007 189.433C450.144 187.763 448.677 186.414 446.852 185.613C445.028 184.812 442.956 184.607 440.985 185.032C439.014 185.458 437.264 186.488 436.028 187.951L439.963 193.349L434.586 190.484C434.169 191.704 434.079 192.997 434.325 194.255Z" fill="#57B894"/>
<path d="M434.689 193.188C435.04 195.006 436.066 196.659 437.595 197.87C439.124 199.081 441.063 199.775 443.087 199.837C445.112 199.899 447.098 199.325 448.713 198.211C450.328 197.097 451.473 195.511 451.957 193.718C452.441 191.925 452.234 190.036 451.371 188.366C450.508 186.696 449.041 185.347 447.216 184.546C445.391 183.745 443.32 183.54 441.349 183.965C439.378 184.391 437.628 185.421 436.391 186.884L440.327 192.283L434.949 189.417C434.533 190.637 434.443 191.93 434.689 193.188V193.188Z" stroke="#3F3D56" stroke-miterlimit="10"/>
<path d="M3.823 181.908C4.66773 182.188 5.57225 182.285 6.46525 182.192C7.35826 182.099 8.21534 181.818 8.96895 181.372C9.72255 180.925 10.3521 180.325 10.8079 179.619C11.2637 178.913 11.5334 178.12 11.5957 177.303C11.6579 176.486 11.5111 175.666 11.1667 174.91C10.8223 174.153 10.2898 173.48 9.61112 172.943C8.93245 172.405 8.12618 172.019 7.25586 171.815C6.38553 171.61 5.47495 171.592 4.59588 171.763L4.74115 174.486L3.32786 172.152C1.94081 172.746 0.869248 173.818 0.348665 175.132C0.163785 175.592 0.0513907 176.074 0.0148369 176.563C-0.0743702 177.71 0.249131 178.852 0.936317 179.817C1.6235 180.781 2.63692 181.515 3.823 181.908Z" fill="#57B894"/>
<path d="M10.816 213.485C10.3171 211.17 12.4789 209.117 14.6142 207.783C16.7496 206.448 19.2446 205.138 19.9732 202.873C21.0203 199.619 17.9013 196.639 15.4737 194.069C13.6726 192.162 12.1259 190.066 10.866 187.827C10.3182 186.948 9.94513 185.987 9.76389 184.989C9.57248 183.547 10.0809 182.112 10.5932 180.736C12.2996 176.152 14.1241 171.607 16.0667 167.1" stroke="#3F3D56" stroke-miterlimit="10"/>
<path d="M4.06201 181.207C4.90674 181.487 5.81126 181.584 6.70426 181.491C7.59726 181.398 8.45435 181.117 9.20795 180.671C9.96155 180.224 10.5911 179.624 11.0469 178.918C11.5027 178.212 11.7724 177.419 11.8347 176.602C11.8969 175.785 11.7501 174.966 11.4057 174.209C11.0613 173.452 10.5288 172.779 9.85012 172.242C9.17145 171.704 8.36518 171.318 7.49486 171.114C6.62454 170.909 5.71396 170.891 4.83489 171.062L4.98016 173.785L3.56687 171.452C2.17982 172.046 1.10825 173.117 0.587672 174.431C0.402793 174.891 0.290401 175.373 0.253845 175.862C0.164632 177.009 0.488131 178.151 1.17532 179.116C1.86251 180.08 2.87593 180.815 4.06201 181.207V181.207Z" stroke="#3F3D56" stroke-miterlimit="10"/>
<path d="M10.1066 166.16C10.4381 165.326 10.9945 164.582 11.7245 163.996C12.4545 163.41 13.3347 163 14.2839 162.806L14.7617 165.394L15.6476 162.676C16.8777 162.692 18.0701 163.065 19.0528 163.739C20.0355 164.414 20.7575 165.356 21.1146 166.429C21.4718 167.501 21.4456 168.65 21.0398 169.709C20.634 170.767 19.8696 171.681 18.857 172.317C17.8445 172.954 16.6361 173.281 15.4063 173.251C14.1765 173.221 12.9891 172.836 12.0153 172.15C11.0415 171.465 10.3319 170.516 9.98883 169.439C9.64575 168.362 9.687 167.214 10.1066 166.16Z" fill="#57B894"/>
<path d="M10.4253 165.225C10.7568 164.392 11.3132 163.647 12.0432 163.061C12.7732 162.475 13.6534 162.066 14.6025 161.871L15.0804 164.459L15.9663 161.741C17.1964 161.758 18.3888 162.13 19.3715 162.805C20.3541 163.479 21.0762 164.421 21.4333 165.494C21.7904 166.567 21.7642 167.716 21.3585 168.774C20.9527 169.832 20.1883 170.746 19.1757 171.383C18.1631 172.02 16.9547 172.346 15.725 172.316C14.4952 172.286 13.3077 171.901 12.334 171.216C11.3602 170.531 10.6506 169.581 10.3075 168.504C9.96443 167.428 10.0057 166.279 10.4253 165.225V165.225Z" stroke="#3F3D56" stroke-miterlimit="10"/>
<path d="M14.4549 194.121C15.7946 194.564 17.2662 194.542 18.5893 194.06C19.9124 193.577 20.9945 192.668 21.6293 191.505C22.264 190.342 22.4071 189.007 22.0312 187.754C21.6554 186.501 20.7868 185.418 19.5912 184.712L18.9104 186.801L18.4277 184.182C18.4229 184.18 18.418 184.178 18.4129 184.177C17.6964 183.939 16.9355 183.833 16.1737 183.864C15.412 183.894 14.6643 184.061 13.9735 184.355C13.2827 184.65 12.6622 185.065 12.1476 185.578C11.633 186.09 11.2343 186.691 10.9742 187.344C10.7142 187.997 10.598 188.691 10.6322 189.385C10.6665 190.079 10.8504 190.761 11.1737 191.39C11.4969 192.019 11.9531 192.585 12.5161 193.053C13.0791 193.522 13.7379 193.885 14.4549 194.121Z" fill="#57B894"/>
<path d="M14.731 193.175C16.0707 193.618 17.5423 193.596 18.8654 193.113C20.1886 192.631 21.2706 191.721 21.9054 190.559C22.5401 189.396 22.6832 188.06 22.3074 186.808C21.9315 185.555 21.063 184.472 19.8673 183.765L19.1865 185.854L18.7038 183.235C18.6991 183.233 18.6941 183.232 18.6891 183.23C17.9726 182.993 17.2121 182.887 16.4507 182.918C15.6894 182.949 14.9422 183.117 14.2518 183.411C12.8576 184.005 11.7795 185.08 11.2546 186.399C10.7297 187.717 10.8011 189.172 11.4531 190.443C12.1051 191.714 13.2842 192.696 14.731 193.175V193.175Z" stroke="#3F3D56" stroke-miterlimit="10"/>
<path d="M8.41298 202.906C8.64332 204.1 9.31733 205.186 10.322 205.982C11.3266 206.777 12.6008 207.233 13.9308 207.274C15.2608 207.315 16.5657 206.938 17.6268 206.206C18.6879 205.474 19.4405 204.432 19.7585 203.254C20.0765 202.076 19.9405 200.834 19.3733 199.737C18.8062 198.64 17.8423 197.754 16.6434 197.228C15.4445 196.701 14.0835 196.567 12.7886 196.846C11.4936 197.126 10.3436 197.803 9.53134 198.764L12.1171 202.311L8.58399 200.428C8.31005 201.229 8.2514 202.079 8.41298 202.906Z" fill="#57B894"/>
<path d="M8.65199 202.205C8.88233 203.399 9.55633 204.485 10.561 205.281C11.5656 206.076 12.8398 206.533 14.1698 206.573C15.4998 206.614 16.8047 206.237 17.8658 205.505C18.9269 204.773 19.6795 203.731 19.9975 202.553C20.3155 201.375 20.1795 200.134 19.6123 199.036C19.0452 197.939 18.0813 197.053 16.8824 196.527C15.6835 196 14.3225 195.866 13.0276 196.145C11.7327 196.425 10.5826 197.102 9.77035 198.063L12.3561 201.61L8.82299 199.727C8.54905 200.528 8.49041 201.378 8.65199 202.205V202.205Z" stroke="#3F3D56" stroke-miterlimit="10"/>
<path d="M204.126 131.955C208.111 131.955 211.341 128.145 211.341 123.445C211.341 118.744 208.111 114.934 204.126 114.934C200.141 114.934 196.911 118.744 196.911 123.445C196.911 128.145 200.141 131.955 204.126 131.955Z" fill="#2F2E41"/>
<path d="M243.385 132.148C247.37 132.148 250.601 128.338 250.601 123.638C250.601 118.938 247.37 115.128 243.385 115.128C239.401 115.128 236.17 118.938 236.17 123.638C236.17 128.338 239.401 132.148 243.385 132.148Z" fill="#2F2E41"/>
<path d="M237.868 148.782C237.868 152.627 231.977 155.745 224.711 155.745C217.445 155.745 211.553 152.627 211.553 148.782C211.553 145.451 215.972 142.666 221.876 141.985C222.815 141.872 223.763 141.817 224.711 141.819C226.299 141.814 227.884 141.97 229.435 142.283C234.366 143.285 237.868 145.819 237.868 148.782Z" fill="#2F2E41"/>
<path d="M205.824 130.021C209.809 130.021 213.039 126.21 213.039 121.51C213.039 116.81 209.809 113 205.824 113C201.839 113 198.609 116.81 198.609 121.51C198.609 126.21 201.839 130.021 205.824 130.021Z" stroke="#3F3D56" stroke-miterlimit="10"/>
<path d="M245.083 130.214C249.068 130.214 252.298 126.404 252.298 121.704C252.298 117.004 249.068 113.193 245.083 113.193C241.098 113.193 237.868 117.004 237.868 121.704C237.868 126.404 241.098 130.214 245.083 130.214Z" stroke="#3F3D56" stroke-miterlimit="10"/>
<path d="M226.408 153.811C233.675 153.811 239.566 150.693 239.566 146.848C239.566 143.002 233.675 139.885 226.408 139.885C219.142 139.885 213.251 143.002 213.251 146.848C213.251 150.693 219.142 153.811 226.408 153.811Z" stroke="#3F3D56" stroke-miterlimit="10"/>
<path d="M229.592 142.864C229.595 143.35 229.395 143.819 229.031 144.176C228.86 144.346 228.651 144.483 228.419 144.577C228.187 144.67 227.936 144.719 227.682 144.72H223.437C222.914 144.704 222.42 144.499 222.062 144.151C221.704 143.803 221.512 143.34 221.528 142.864C221.525 142.486 221.646 142.117 221.876 141.803C222.815 141.683 223.762 141.623 224.711 141.626C226.301 141.621 227.887 141.787 229.435 142.121C229.539 142.357 229.593 142.609 229.592 142.864Z" fill="white"/>
<path d="M205.824 121.124C206.996 121.124 207.946 120.258 207.946 119.189C207.946 118.121 206.996 117.255 205.824 117.255C204.652 117.255 203.702 118.121 203.702 119.189C203.702 120.258 204.652 121.124 205.824 121.124Z" fill="white"/>
<path d="M245.295 121.124C246.467 121.124 247.417 120.258 247.417 119.189C247.417 118.121 246.467 117.255 245.295 117.255C244.123 117.255 243.173 118.121 243.173 119.189C243.173 120.258 244.123 121.124 245.295 121.124Z" fill="white"/>
<path opacity="0.3" d="M247.417 139.305C248.59 139.305 249.54 138.439 249.54 137.37C249.54 136.302 248.59 135.436 247.417 135.436C246.245 135.436 245.295 136.302 245.295 137.37C245.295 138.439 246.245 139.305 247.417 139.305Z" fill="#6C63FF"/>
<path opacity="0.3" d="M195.638 139.305C196.81 139.305 197.76 138.439 197.76 137.37C197.76 136.302 196.81 135.436 195.638 135.436C194.466 135.436 193.515 136.302 193.515 137.37C193.515 138.439 194.466 139.305 195.638 139.305Z" fill="#6C63FF"/>
</g>
<defs>
<clipPath id="clip0">
<rect width="456" height="226" fill="white"/>
</clipPath>
</defs>
</svg>
